<?xml version="1.0" encoding="UTF-8" standalone="no"?>
<!DOCTYPE svg PUBLIC "-//W3C//DTD SVG 1.1//EN" "http://www.w3.org/Graphics/SVG/1.1/DTD/svg11.dtd">
<svg width="100%" height="100%" viewBox="0 0 800 600" version="1.1" xmlns="http://www.w3.org/2000/svg" xmlns:xlink="http://www.w3.org/1999/xlink" xml:space="preserve" xmlns:serif="http://www.serif.com/" style="fill-rule:evenodd;clip-rule:evenodd;stroke-linecap:square;stroke-linejoin:round;stroke-miterlimit:1.5;">
    <rect id="Home-page" serif:id="Home page" x="0" y="0" width="800" height="600" style="fill: #E0FBFC;"/>
    <g id="Home-page1" serif:id="Home page">
        <g transform="matrix(1,0,0,1,-17.7928,-12.8118)">
            <g transform="matrix(64,0,0,64,43.1755,73.0742)">
                <path d="M0.642,-0L0.495,-0L0.21,-0.468L0.21,-0L0.063,-0L0.063,-0.711L0.21,-0.711L0.496,-0.242L0.496,-0.711L0.642,-0.711L0.642,-0Z" style="fill-rule:nonzero;"/>
            </g>
            <g transform="matrix(44,0,0,44,88.363,73.0742)">
                <path d="M0.36,-0C0.354,-0.013 0.349,-0.028 0.346,-0.047C0.312,-0.009 0.268,0.01 0.213,0.01C0.161,0.01 0.118,-0.005 0.084,-0.035C0.05,-0.065 0.033,-0.103 0.033,-0.148C0.033,-0.204 0.054,-0.247 0.095,-0.277C0.137,-0.307 0.197,-0.322 0.275,-0.323L0.34,-0.323L0.34,-0.353C0.34,-0.377 0.334,-0.397 0.322,-0.412C0.309,-0.426 0.289,-0.434 0.262,-0.434C0.238,-0.434 0.22,-0.428 0.206,-0.417C0.193,-0.405 0.186,-0.389 0.186,-0.37L0.045,-0.37C0.045,-0.4 0.054,-0.429 0.073,-0.455C0.092,-0.481 0.119,-0.501 0.153,-0.516C0.188,-0.531 0.227,-0.538 0.27,-0.538C0.335,-0.538 0.386,-0.522 0.425,-0.489C0.463,-0.456 0.482,-0.41 0.482,-0.351L0.482,-0.122C0.482,-0.072 0.489,-0.034 0.503,-0.008L0.503,-0L0.36,-0ZM0.244,-0.098C0.264,-0.098 0.284,-0.103 0.301,-0.112C0.319,-0.121 0.332,-0.134 0.34,-0.149L0.34,-0.24L0.288,-0.24C0.217,-0.24 0.179,-0.216 0.175,-0.167L0.174,-0.159C0.174,-0.141 0.181,-0.127 0.193,-0.115C0.205,-0.104 0.222,-0.098 0.244,-0.098Z" style="fill-rule:nonzero;"/>
            </g>
            <g transform="matrix(44,0,0,44,111.953,73.0742)">
                <path d="M0.223,-0.658L0.223,-0.528L0.313,-0.528L0.313,-0.425L0.223,-0.425L0.223,-0.161C0.223,-0.142 0.227,-0.128 0.234,-0.119C0.242,-0.111 0.256,-0.106 0.277,-0.106C0.293,-0.106 0.307,-0.108 0.319,-0.11L0.319,-0.003C0.291,0.006 0.263,0.01 0.233,0.01C0.134,0.01 0.084,-0.04 0.082,-0.14L0.082,-0.425L0.005,-0.425L0.005,-0.528L0.082,-0.528L0.082,-0.658L0.223,-0.658Z" style="fill-rule:nonzero;"/>
            </g>
            <g transform="matrix(44,0,0,44,126.82,73.0742)">
                <path d="M0.371,-0.054C0.336,-0.011 0.288,0.01 0.226,0.01C0.169,0.01 0.126,-0.007 0.096,-0.039C0.067,-0.072 0.051,-0.119 0.051,-0.182L0.051,-0.528L0.192,-0.528L0.192,-0.187C0.192,-0.132 0.217,-0.104 0.267,-0.104C0.315,-0.104 0.348,-0.121 0.366,-0.154L0.366,-0.528L0.507,-0.528L0.507,-0L0.375,-0L0.371,-0.054Z" style="fill-rule:nonzero;"/>
            </g>
            <g transform="matrix(44,0,0,44,151.441,73.0742)">
                <path d="M0.351,-0.396C0.332,-0.399 0.315,-0.4 0.3,-0.4C0.247,-0.4 0.212,-0.382 0.195,-0.346L0.195,-0L0.054,-0L0.054,-0.528L0.188,-0.528L0.191,-0.465C0.22,-0.514 0.259,-0.538 0.309,-0.538C0.325,-0.538 0.339,-0.536 0.353,-0.532L0.351,-0.396Z" style="fill-rule:nonzero;"/>
            </g>
            <g transform="matrix(44,0,0,44,166.845,73.0742)">
                <path d="M0.36,-0C0.354,-0.013 0.349,-0.028 0.346,-0.047C0.312,-0.009 0.268,0.01 0.213,0.01C0.161,0.01 0.118,-0.005 0.084,-0.035C0.05,-0.065 0.033,-0.103 0.033,-0.148C0.033,-0.204 0.054,-0.247 0.095,-0.277C0.137,-0.307 0.197,-0.322 0.275,-0.323L0.34,-0.323L0.34,-0.353C0.34,-0.377 0.334,-0.397 0.322,-0.412C0.309,-0.426 0.289,-0.434 0.262,-0.434C0.238,-0.434 0.22,-0.428 0.206,-0.417C0.193,-0.405 0.186,-0.389 0.186,-0.37L0.045,-0.37C0.045,-0.4 0.054,-0.429 0.073,-0.455C0.092,-0.481 0.119,-0.501 0.153,-0.516C0.188,-0.531 0.227,-0.538 0.27,-0.538C0.335,-0.538 0.386,-0.522 0.425,-0.489C0.463,-0.456 0.482,-0.41 0.482,-0.351L0.482,-0.122C0.482,-0.072 0.489,-0.034 0.503,-0.008L0.503,-0L0.36,-0ZM0.244,-0.098C0.264,-0.098 0.284,-0.103 0.301,-0.112C0.319,-0.121 0.332,-0.134 0.34,-0.149L0.34,-0.24L0.288,-0.24C0.217,-0.24 0.179,-0.216 0.175,-0.167L0.174,-0.159C0.174,-0.141 0.181,-0.127 0.193,-0.115C0.205,-0.104 0.222,-0.098 0.244,-0.098Z" style="fill-rule:nonzero;"/>
            </g>
            <g transform="matrix(44,0,0,44,190.435,73.0742)">
                <rect x="0.062" y="-0.75" width="0.142" height="0.75" style="fill-rule:nonzero;"/>
            </g>
            <g transform="matrix(44,0,0,44,202.101,73.0742)">
                <path d="M0.203,-0L0.062,-0L0.062,-0.528L0.203,-0.528L0.203,-0ZM0.053,-0.665C0.053,-0.686 0.06,-0.704 0.074,-0.717C0.089,-0.731 0.108,-0.738 0.132,-0.738C0.156,-0.738 0.176,-0.731 0.19,-0.717C0.204,-0.704 0.211,-0.686 0.211,-0.665C0.211,-0.644 0.204,-0.626 0.19,-0.612C0.175,-0.599 0.156,-0.592 0.132,-0.592C0.109,-0.592 0.089,-0.599 0.075,-0.612C0.06,-0.626 0.053,-0.644 0.053,-0.665Z" style="fill-rule:nonzero;"/>
            </g>
            <g transform="matrix(44,0,0,44,213.767,73.0742)">
                <path d="M0.34,-0.146C0.34,-0.163 0.332,-0.177 0.315,-0.187C0.298,-0.197 0.27,-0.206 0.232,-0.213C0.107,-0.24 0.044,-0.293 0.044,-0.374C0.044,-0.42 0.063,-0.46 0.102,-0.491C0.141,-0.522 0.192,-0.538 0.255,-0.538C0.322,-0.538 0.376,-0.522 0.416,-0.491C0.456,-0.459 0.476,-0.418 0.476,-0.368L0.335,-0.368C0.335,-0.388 0.328,-0.405 0.315,-0.418C0.302,-0.431 0.282,-0.438 0.254,-0.438C0.231,-0.438 0.212,-0.432 0.199,-0.421C0.186,-0.411 0.18,-0.397 0.18,-0.38C0.18,-0.365 0.187,-0.352 0.202,-0.343C0.217,-0.333 0.242,-0.325 0.277,-0.318C0.312,-0.311 0.342,-0.303 0.366,-0.294C0.44,-0.267 0.478,-0.219 0.478,-0.152C0.478,-0.104 0.457,-0.065 0.416,-0.035C0.374,-0.005 0.321,0.01 0.255,0.01C0.211,0.01 0.172,0.002 0.137,-0.014C0.103,-0.03 0.076,-0.051 0.057,-0.079C0.037,-0.106 0.027,-0.136 0.027,-0.168L0.161,-0.168C0.162,-0.143 0.172,-0.124 0.189,-0.11C0.206,-0.097 0.229,-0.09 0.258,-0.09C0.285,-0.09 0.306,-0.095 0.32,-0.106C0.333,-0.116 0.34,-0.129 0.34,-0.146Z" style="fill-rule:nonzero;"/>
            </g>
            <g transform="matrix(44,0,0,44,236.39,73.0742)">
                <path d="M0.223,-0.658L0.223,-0.528L0.313,-0.528L0.313,-0.425L0.223,-0.425L0.223,-0.161C0.223,-0.142 0.227,-0.128 0.234,-0.119C0.242,-0.111 0.256,-0.106 0.277,-0.106C0.293,-0.106 0.307,-0.108 0.319,-0.11L0.319,-0.003C0.291,0.006 0.263,0.01 0.233,0.01C0.134,0.01 0.084,-0.04 0.082,-0.14L0.082,-0.425L0.005,-0.425L0.005,-0.528L0.082,-0.528L0.082,-0.658L0.223,-0.658Z" style="fill-rule:nonzero;"/>
            </g>
            <g transform="matrix(44,0,0,44,251.258,73.0742)">
                <path d="M0.134,-0.678L0.12,-0.481L0.031,-0.481L0.031,-0.75L0.134,-0.75L0.134,-0.678Z" style="fill-rule:nonzero;"/>
            </g>
            <g transform="matrix(44,0,0,44,256.392,73.0742)">
                <path d="M0.34,-0.146C0.34,-0.163 0.332,-0.177 0.315,-0.187C0.298,-0.197 0.27,-0.206 0.232,-0.213C0.107,-0.24 0.044,-0.293 0.044,-0.374C0.044,-0.42 0.063,-0.46 0.102,-0.491C0.141,-0.522 0.192,-0.538 0.255,-0.538C0.322,-0.538 0.376,-0.522 0.416,-0.491C0.456,-0.459 0.476,-0.418 0.476,-0.368L0.335,-0.368C0.335,-0.388 0.328,-0.405 0.315,-0.418C0.302,-0.431 0.282,-0.438 0.254,-0.438C0.231,-0.438 0.212,-0.432 0.199,-0.421C0.186,-0.411 0.18,-0.397 0.18,-0.38C0.18,-0.365 0.187,-0.352 0.202,-0.343C0.217,-0.333 0.242,-0.325 0.277,-0.318C0.312,-0.311 0.342,-0.303 0.366,-0.294C0.44,-0.267 0.478,-0.219 0.478,-0.152C0.478,-0.104 0.457,-0.065 0.416,-0.035C0.374,-0.005 0.321,0.01 0.255,0.01C0.211,0.01 0.172,0.002 0.137,-0.014C0.103,-0.03 0.076,-0.051 0.057,-0.079C0.037,-0.106 0.027,-0.136 0.027,-0.168L0.161,-0.168C0.162,-0.143 0.172,-0.124 0.189,-0.11C0.206,-0.097 0.229,-0.09 0.258,-0.09C0.285,-0.09 0.306,-0.095 0.32,-0.106C0.333,-0.116 0.34,-0.129 0.34,-0.146Z" style="fill-rule:nonzero;"/>
            </g>
        </g>
        <g transform="matrix(1,0,0,1,50.9623,41.7784)">
            <g transform="matrix(86,0,0,86,43.1755,89.5742)">
                <path d="M0.622,-0.237C0.616,-0.16 0.588,-0.1 0.537,-0.056C0.486,-0.012 0.419,0.01 0.335,0.01C0.244,0.01 0.173,-0.021 0.12,-0.082C0.068,-0.144 0.042,-0.228 0.042,-0.335L0.042,-0.378C0.042,-0.447 0.054,-0.507 0.078,-0.559C0.102,-0.611 0.137,-0.651 0.181,-0.679C0.226,-0.707 0.278,-0.721 0.337,-0.721C0.419,-0.721 0.486,-0.699 0.536,-0.655C0.586,-0.611 0.615,-0.549 0.623,-0.47L0.476,-0.47C0.472,-0.516 0.46,-0.549 0.438,-0.57C0.416,-0.59 0.382,-0.601 0.337,-0.601C0.289,-0.601 0.252,-0.583 0.228,-0.548C0.204,-0.513 0.191,-0.459 0.19,-0.385L0.19,-0.332C0.19,-0.255 0.202,-0.199 0.225,-0.163C0.249,-0.128 0.285,-0.11 0.335,-0.11C0.381,-0.11 0.414,-0.12 0.437,-0.141C0.459,-0.162 0.472,-0.194 0.475,-0.237L0.622,-0.237Z" style="fill-rule:nonzero;"/>
            </g>
            <g transform="matrix(44,0,0,44,99.445,89.5742)">
                <path d="M0.371,-0.054C0.336,-0.011 0.288,0.01 0.226,0.01C0.169,0.01 0.126,-0.007 0.096,-0.039C0.067,-0.072 0.051,-0.119 0.051,-0.182L0.051,-0.528L0.192,-0.528L0.192,-0.187C0.192,-0.132 0.217,-0.104 0.267,-0.104C0.315,-0.104 0.348,-0.121 0.366,-0.154L0.366,-0.528L0.507,-0.528L0.507,-0L0.375,-0L0.371,-0.054Z" style="fill-rule:nonzero;"/>
            </g>
            <g transform="matrix(44,0,0,44,124.066,89.5742)">
                <path d="M0.351,-0.396C0.332,-0.399 0.315,-0.4 0.3,-0.4C0.247,-0.4 0.212,-0.382 0.195,-0.346L0.195,-0L0.054,-0L0.054,-0.528L0.188,-0.528L0.191,-0.465C0.22,-0.514 0.259,-0.538 0.309,-0.538C0.325,-0.538 0.339,-0.536 0.353,-0.532L0.351,-0.396Z" style="fill-rule:nonzero;"/>
            </g>
            <g transform="matrix(44,0,0,44,140.115,89.5742)">
                <path d="M0.203,-0L0.062,-0L0.062,-0.528L0.203,-0.528L0.203,-0ZM0.053,-0.665C0.053,-0.686 0.06,-0.704 0.074,-0.717C0.089,-0.731 0.108,-0.738 0.132,-0.738C0.156,-0.738 0.176,-0.731 0.19,-0.717C0.204,-0.704 0.211,-0.686 0.211,-0.665C0.211,-0.644 0.204,-0.626 0.19,-0.612C0.175,-0.599 0.156,-0.592 0.132,-0.592C0.109,-0.592 0.089,-0.599 0.075,-0.612C0.06,-0.626 0.053,-0.644 0.053,-0.665Z" style="fill-rule:nonzero;"/>
            </g>
            <g transform="matrix(44,0,0,44,151.781,89.5742)">
                <path d="M0.032,-0.269C0.032,-0.321 0.042,-0.368 0.063,-0.409C0.083,-0.45 0.112,-0.482 0.15,-0.504C0.188,-0.527 0.232,-0.538 0.282,-0.538C0.353,-0.538 0.411,-0.516 0.456,-0.473C0.501,-0.429 0.527,-0.37 0.532,-0.295L0.533,-0.259C0.533,-0.178 0.51,-0.113 0.465,-0.064C0.42,-0.015 0.359,0.01 0.283,0.01C0.207,0.01 0.146,-0.015 0.1,-0.063C0.055,-0.112 0.032,-0.179 0.032,-0.263L0.032,-0.269ZM0.173,-0.259C0.173,-0.209 0.183,-0.17 0.202,-0.144C0.221,-0.117 0.248,-0.104 0.283,-0.104C0.317,-0.104 0.344,-0.117 0.363,-0.143C0.382,-0.17 0.392,-0.211 0.392,-0.269C0.392,-0.318 0.382,-0.356 0.363,-0.383C0.344,-0.41 0.317,-0.424 0.282,-0.424C0.247,-0.424 0.221,-0.41 0.202,-0.384C0.183,-0.357 0.173,-0.315 0.173,-0.259Z" style="fill-rule:nonzero;"/>
            </g>
            <g transform="matrix(44,0,0,44,176.66,89.5742)">
                <path d="M0.34,-0.146C0.34,-0.163 0.332,-0.177 0.315,-0.187C0.298,-0.197 0.27,-0.206 0.232,-0.213C0.107,-0.24 0.044,-0.293 0.044,-0.374C0.044,-0.42 0.063,-0.46 0.102,-0.491C0.141,-0.522 0.192,-0.538 0.255,-0.538C0.322,-0.538 0.376,-0.522 0.416,-0.491C0.456,-0.459 0.476,-0.418 0.476,-0.368L0.335,-0.368C0.335,-0.388 0.328,-0.405 0.315,-0.418C0.302,-0.431 0.282,-0.438 0.254,-0.438C0.231,-0.438 0.212,-0.432 0.199,-0.421C0.186,-0.411 0.18,-0.397 0.18,-0.38C0.18,-0.365 0.187,-0.352 0.202,-0.343C0.217,-0.333 0.242,-0.325 0.277,-0.318C0.312,-0.311 0.342,-0.303 0.366,-0.294C0.44,-0.267 0.478,-0.219 0.478,-0.152C0.478,-0.104 0.457,-0.065 0.416,-0.035C0.374,-0.005 0.321,0.01 0.255,0.01C0.211,0.01 0.172,0.002 0.137,-0.014C0.103,-0.03 0.076,-0.051 0.057,-0.079C0.037,-0.106 0.027,-0.136 0.027,-0.168L0.161,-0.168C0.162,-0.143 0.172,-0.124 0.189,-0.11C0.206,-0.097 0.229,-0.09 0.258,-0.09C0.285,-0.09 0.306,-0.095 0.32,-0.106C0.333,-0.116 0.34,-0.129 0.34,-0.146Z" style="fill-rule:nonzero;"/>
            </g>
            <g transform="matrix(44,0,0,44,199.283,89.5742)">
                <path d="M0.203,-0L0.062,-0L0.062,-0.528L0.203,-0.528L0.203,-0ZM0.053,-0.665C0.053,-0.686 0.06,-0.704 0.074,-0.717C0.089,-0.731 0.108,-0.738 0.132,-0.738C0.156,-0.738 0.176,-0.731 0.19,-0.717C0.204,-0.704 0.211,-0.686 0.211,-0.665C0.211,-0.644 0.204,-0.626 0.19,-0.612C0.175,-0.599 0.156,-0.592 0.132,-0.592C0.109,-0.592 0.089,-0.599 0.075,-0.612C0.06,-0.626 0.053,-0.644 0.053,-0.665Z" style="fill-rule:nonzero;"/>
            </g>
            <g transform="matrix(44,0,0,44,210.949,89.5742)">
                <path d="M0.223,-0.658L0.223,-0.528L0.313,-0.528L0.313,-0.425L0.223,-0.425L0.223,-0.161C0.223,-0.142 0.227,-0.128 0.234,-0.119C0.242,-0.111 0.256,-0.106 0.277,-0.106C0.293,-0.106 0.307,-0.108 0.319,-0.11L0.319,-0.003C0.291,0.006 0.263,0.01 0.233,0.01C0.134,0.01 0.084,-0.04 0.082,-0.14L0.082,-0.425L0.005,-0.425L0.005,-0.528L0.082,-0.528L0.082,-0.658L0.223,-0.658Z" style="fill-rule:nonzero;"/>
            </g>
            <g transform="matrix(44,0,0,44,225.816,89.5742)">
                <path d="M0.251,-0.2L0.349,-0.528L0.5,-0.528L0.288,0.082L0.276,0.11C0.245,0.179 0.193,0.213 0.12,0.213C0.1,0.213 0.079,0.21 0.058,0.204L0.058,0.097L0.079,0.098C0.106,0.098 0.126,0.094 0.139,0.085C0.152,0.077 0.162,0.064 0.17,0.045L0.187,0.001L0.001,-0.528L0.153,-0.528L0.251,-0.2Z" style="fill-rule:nonzero;"/>
            </g>
        </g>
        <g transform="matrix(1,-1.76577e-30,0,1,68.7771,107.447)">
            <g transform="matrix(44,0,0,44,43.1755,58.0742)">
                <path d="M0.36,-0C0.354,-0.013 0.349,-0.028 0.346,-0.047C0.312,-0.009 0.268,0.01 0.213,0.01C0.161,0.01 0.118,-0.005 0.084,-0.035C0.05,-0.065 0.033,-0.103 0.033,-0.148C0.033,-0.204 0.054,-0.247 0.095,-0.277C0.137,-0.307 0.197,-0.322 0.275,-0.323L0.34,-0.323L0.34,-0.353C0.34,-0.377 0.334,-0.397 0.322,-0.412C0.309,-0.426 0.289,-0.434 0.262,-0.434C0.238,-0.434 0.22,-0.428 0.206,-0.417C0.193,-0.405 0.186,-0.389 0.186,-0.37L0.045,-0.37C0.045,-0.4 0.054,-0.429 0.073,-0.455C0.092,-0.481 0.119,-0.501 0.153,-0.516C0.188,-0.531 0.227,-0.538 0.27,-0.538C0.335,-0.538 0.386,-0.522 0.425,-0.489C0.463,-0.456 0.482,-0.41 0.482,-0.351L0.482,-0.122C0.482,-0.072 0.489,-0.034 0.503,-0.008L0.503,-0L0.36,-0ZM0.244,-0.098C0.264,-0.098 0.284,-0.103 0.301,-0.112C0.319,-0.121 0.332,-0.134 0.34,-0.149L0.34,-0.24L0.288,-0.24C0.217,-0.24 0.179,-0.216 0.175,-0.167L0.174,-0.159C0.174,-0.141 0.181,-0.127 0.193,-0.115C0.205,-0.104 0.222,-0.098 0.244,-0.098Z" style="fill-rule:nonzero;"/>
            </g>
            <g transform="matrix(44,0,0,44,43.1755,106.074)">
                <path d="M0.53,-0.259C0.53,-0.175 0.512,-0.109 0.476,-0.061C0.44,-0.014 0.389,0.01 0.325,0.01C0.267,0.01 0.222,-0.012 0.188,-0.056L0.181,-0L0.054,-0L0.054,-0.75L0.195,-0.75L0.195,-0.481C0.228,-0.519 0.271,-0.538 0.324,-0.538C0.388,-0.538 0.439,-0.514 0.475,-0.467C0.512,-0.42 0.53,-0.353 0.53,-0.267L0.53,-0.259ZM0.389,-0.27C0.389,-0.323 0.381,-0.362 0.364,-0.386C0.347,-0.411 0.322,-0.423 0.288,-0.423C0.243,-0.423 0.212,-0.405 0.195,-0.368L0.195,-0.16C0.213,-0.123 0.244,-0.104 0.289,-0.104C0.335,-0.104 0.365,-0.126 0.379,-0.171C0.386,-0.193 0.389,-0.226 0.389,-0.27Z" style="fill-rule:nonzero;"/>
            </g>
            <g transform="matrix(44,0,0,44,43.1755,154.074)">
                <path d="M0.203,-0L0.062,-0L0.062,-0.528L0.203,-0.528L0.203,-0ZM0.053,-0.665C0.053,-0.686 0.06,-0.704 0.074,-0.717C0.089,-0.731 0.108,-0.738 0.132,-0.738C0.156,-0.738 0.176,-0.731 0.19,-0.717C0.204,-0.704 0.211,-0.686 0.211,-0.665C0.211,-0.644 0.204,-0.626 0.19,-0.612C0.175,-0.599 0.156,-0.592 0.132,-0.592C0.109,-0.592 0.089,-0.599 0.075,-0.612C0.06,-0.626 0.053,-0.644 0.053,-0.665Z" style="fill-rule:nonzero;"/>
            </g>
            <g transform="matrix(44,0,0,44,43.1755,202.074)">
                <path d="M0.184,-0.528L0.188,-0.467C0.226,-0.514 0.277,-0.538 0.34,-0.538C0.396,-0.538 0.438,-0.522 0.465,-0.489C0.493,-0.456 0.507,-0.407 0.507,-0.341L0.507,-0L0.366,-0L0.366,-0.338C0.366,-0.368 0.36,-0.39 0.347,-0.403C0.334,-0.417 0.312,-0.423 0.282,-0.423C0.242,-0.423 0.212,-0.406 0.192,-0.373L0.192,-0L0.051,-0L0.051,-0.528L0.184,-0.528Z" style="fill-rule:nonzero;"/>
            </g>
            <g transform="matrix(44,0,0,44,43.1755,250.074)">
                <path d="M0.297,0.01C0.22,0.01 0.157,-0.014 0.108,-0.062C0.059,-0.109 0.035,-0.172 0.035,-0.251L0.035,-0.265C0.035,-0.318 0.045,-0.366 0.066,-0.407C0.086,-0.449 0.115,-0.482 0.153,-0.504C0.191,-0.527 0.234,-0.538 0.282,-0.538C0.354,-0.538 0.411,-0.515 0.452,-0.47C0.494,-0.424 0.515,-0.36 0.515,-0.276L0.515,-0.218L0.178,-0.218C0.183,-0.184 0.197,-0.156 0.219,-0.135C0.242,-0.114 0.271,-0.104 0.307,-0.104C0.361,-0.104 0.403,-0.124 0.434,-0.163L0.503,-0.085C0.482,-0.056 0.454,-0.032 0.417,-0.015C0.381,0.001 0.341,0.01 0.297,0.01ZM0.281,-0.424C0.253,-0.424 0.231,-0.414 0.213,-0.396C0.196,-0.377 0.185,-0.35 0.18,-0.314L0.376,-0.314L0.376,-0.326C0.375,-0.357 0.367,-0.381 0.351,-0.398C0.334,-0.415 0.311,-0.424 0.281,-0.424Z" style="fill-rule:nonzero;"/>
            </g>
            <g transform="matrix(44,0,0,44,43.1755,298.074)">
                <path d="M0.223,-0.658L0.223,-0.528L0.313,-0.528L0.313,-0.425L0.223,-0.425L0.223,-0.161C0.223,-0.142 0.227,-0.128 0.234,-0.119C0.242,-0.111 0.256,-0.106 0.277,-0.106C0.293,-0.106 0.307,-0.108 0.319,-0.11L0.319,-0.003C0.291,0.006 0.263,0.01 0.233,0.01C0.134,0.01 0.084,-0.04 0.082,-0.14L0.082,-0.425L0.005,-0.425L0.005,-0.528L0.082,-0.528L0.082,-0.658L0.223,-0.658Z" style="fill-rule:nonzero;"/>
            </g>
        </g>
        <g>
            <g transform="matrix(1,-5.955e-17,-5.95599e-17,1.07433,-1.4143e-14,-4.96905)">
                <path d="M94.138,66.853L94.138,387.305" style="fill:none;stroke:black;stroke-width:2.89px;"/>
            </g>
            <g transform="matrix(9.06003e-16,1,-0.94325,9.38777e-16,421.054,38.3839)">
                <path d="M94.138,66.853L94.138,387.305" style="fill:none;stroke:black;stroke-width:3.09px;"/>
            </g>
        </g>
        <g transform="matrix(1,0,0,1,38.4086,-32.615)">
            <rect x="47.5" y="165.137" width="8.229" height="8.229" style="fill:none;stroke:black;stroke-width:0.35px;stroke-linecap:round;"/>
        </g>
        <g>
            <rect x="147.504" y="156.412" width="220.981" height="220.981" style="fill:none;stroke:black;stroke-width:5.5px;stroke-linecap:round;"/>
            <g transform="matrix(1,0,0,1,-20.6832,21.4361)">
                <g transform="matrix(122,0,0,122,172.496,276.536)">
                    <path d="M0.642,-0L0.495,-0L0.21,-0.468L0.21,-0L0.063,-0L0.063,-0.711L0.21,-0.711L0.496,-0.242L0.496,-0.711L0.642,-0.711L0.642,-0Z" style="fill-rule:nonzero;"/>
                </g>
                <g transform="matrix(122,0,0,122,258.635,276.536)">
                    <path d="M0.622,-0.237C0.616,-0.16 0.588,-0.1 0.537,-0.056C0.486,-0.012 0.419,0.01 0.335,0.01C0.244,0.01 0.173,-0.021 0.12,-0.082C0.068,-0.144 0.042,-0.228 0.042,-0.335L0.042,-0.378C0.042,-0.447 0.054,-0.507 0.078,-0.559C0.102,-0.611 0.137,-0.651 0.181,-0.679C0.226,-0.707 0.278,-0.721 0.337,-0.721C0.419,-0.721 0.486,-0.699 0.536,-0.655C0.586,-0.611 0.615,-0.549 0.623,-0.47L0.476,-0.47C0.472,-0.516 0.46,-0.549 0.438,-0.57C0.416,-0.59 0.382,-0.601 0.337,-0.601C0.289,-0.601 0.252,-0.583 0.228,-0.548C0.204,-0.513 0.191,-0.459 0.19,-0.385L0.19,-0.332C0.19,-0.255 0.202,-0.199 0.225,-0.163C0.249,-0.128 0.285,-0.11 0.335,-0.11C0.381,-0.11 0.414,-0.12 0.437,-0.141C0.459,-0.162 0.472,-0.194 0.475,-0.237L0.622,-0.237Z" style="fill-rule:nonzero;"/>
                </g>
                <g transform="matrix(71.126,0,0,71.126,338.459,317.162)">
                    <path d="M0.536,-0L0.048,-0L0.048,-0.097L0.278,-0.342C0.31,-0.376 0.333,-0.406 0.348,-0.432C0.364,-0.458 0.371,-0.482 0.371,-0.505C0.371,-0.537 0.363,-0.562 0.347,-0.58C0.331,-0.598 0.308,-0.607 0.279,-0.607C0.247,-0.607 0.222,-0.596 0.203,-0.574C0.185,-0.552 0.176,-0.523 0.176,-0.487L0.034,-0.487C0.034,-0.531 0.045,-0.57 0.065,-0.606C0.086,-0.642 0.115,-0.67 0.153,-0.69C0.191,-0.711 0.233,-0.721 0.281,-0.721C0.354,-0.721 0.411,-0.703 0.452,-0.668C0.492,-0.633 0.513,-0.583 0.513,-0.519C0.513,-0.484 0.504,-0.448 0.485,-0.412C0.467,-0.375 0.436,-0.333 0.392,-0.284L0.23,-0.114L0.536,-0.114L0.536,-0Z" style="fill-rule:nonzero;"/>
                </g>
            </g>
        </g>
        <g transform="matrix(1,0,0,1,0,-15.7153)">
            <g transform="matrix(32,0,0,32,379.481,386.819)">
                <path d="M0.617,-0.205L0.713,-0.711L0.859,-0.711L0.701,-0L0.554,-0L0.438,-0.476L0.322,-0L0.175,-0L0.017,-0.711L0.163,-0.711L0.259,-0.206L0.376,-0.711L0.5,-0.711L0.617,-0.205Z" style="fill-rule:nonzero;"/>
            </g>
            <g transform="matrix(32,0,0,32,407.466,386.819)">
                <path d="M0.192,-0.471C0.229,-0.516 0.276,-0.538 0.333,-0.538C0.448,-0.538 0.506,-0.472 0.507,-0.338L0.507,-0L0.366,-0L0.366,-0.334C0.366,-0.365 0.36,-0.387 0.347,-0.402C0.334,-0.416 0.312,-0.423 0.282,-0.423C0.24,-0.423 0.21,-0.407 0.192,-0.375L0.192,-0L0.051,-0L0.051,-0.75L0.192,-0.75L0.192,-0.471Z" style="fill-rule:nonzero;"/>
            </g>
            <g transform="matrix(32,0,0,32,425.372,386.819)">
                <path d="M0.297,0.01C0.22,0.01 0.157,-0.014 0.108,-0.062C0.059,-0.109 0.035,-0.172 0.035,-0.251L0.035,-0.265C0.035,-0.318 0.045,-0.366 0.066,-0.407C0.086,-0.449 0.115,-0.482 0.153,-0.504C0.191,-0.527 0.234,-0.538 0.282,-0.538C0.354,-0.538 0.411,-0.515 0.452,-0.47C0.494,-0.424 0.515,-0.36 0.515,-0.276L0.515,-0.218L0.178,-0.218C0.183,-0.184 0.197,-0.156 0.219,-0.135C0.242,-0.114 0.271,-0.104 0.307,-0.104C0.361,-0.104 0.403,-0.124 0.434,-0.163L0.503,-0.085C0.482,-0.056 0.454,-0.032 0.417,-0.015C0.381,0.001 0.341,0.01 0.297,0.01ZM0.281,-0.424C0.253,-0.424 0.231,-0.414 0.213,-0.396C0.196,-0.377 0.185,-0.35 0.18,-0.314L0.376,-0.314L0.376,-0.326C0.375,-0.357 0.367,-0.381 0.351,-0.398C0.334,-0.415 0.311,-0.424 0.281,-0.424Z" style="fill-rule:nonzero;"/>
            </g>
            <g transform="matrix(32,0,0,32,442.669,386.819)">
                <path d="M0.351,-0.396C0.332,-0.399 0.315,-0.4 0.3,-0.4C0.247,-0.4 0.212,-0.382 0.195,-0.346L0.195,-0L0.054,-0L0.054,-0.528L0.188,-0.528L0.191,-0.465C0.22,-0.514 0.259,-0.538 0.309,-0.538C0.325,-0.538 0.339,-0.536 0.353,-0.532L0.351,-0.396Z" style="fill-rule:nonzero;"/>
            </g>
            <g transform="matrix(32,0,0,32,454.044,386.819)">
                <path d="M0.297,0.01C0.22,0.01 0.157,-0.014 0.108,-0.062C0.059,-0.109 0.035,-0.172 0.035,-0.251L0.035,-0.265C0.035,-0.318 0.045,-0.366 0.066,-0.407C0.086,-0.449 0.115,-0.482 0.153,-0.504C0.191,-0.527 0.234,-0.538 0.282,-0.538C0.354,-0.538 0.411,-0.515 0.452,-0.47C0.494,-0.424 0.515,-0.36 0.515,-0.276L0.515,-0.218L0.178,-0.218C0.183,-0.184 0.197,-0.156 0.219,-0.135C0.242,-0.114 0.271,-0.104 0.307,-0.104C0.361,-0.104 0.403,-0.124 0.434,-0.163L0.503,-0.085C0.482,-0.056 0.454,-0.032 0.417,-0.015C0.381,0.001 0.341,0.01 0.297,0.01ZM0.281,-0.424C0.253,-0.424 0.231,-0.414 0.213,-0.396C0.196,-0.377 0.185,-0.35 0.18,-0.314L0.376,-0.314L0.376,-0.326C0.375,-0.357 0.367,-0.381 0.351,-0.398C0.334,-0.415 0.311,-0.424 0.281,-0.424Z" style="fill-rule:nonzero;"/>
            </g>
            <g transform="matrix(32,0,0,32,479.309,386.819)">
                <path d="M0.274,-0.104C0.3,-0.104 0.321,-0.111 0.337,-0.125C0.354,-0.14 0.362,-0.159 0.363,-0.183L0.495,-0.183C0.495,-0.147 0.485,-0.114 0.466,-0.084C0.447,-0.054 0.42,-0.031 0.387,-0.015C0.354,0.002 0.317,0.01 0.276,0.01C0.201,0.01 0.141,-0.014 0.098,-0.062C0.054,-0.11 0.032,-0.177 0.032,-0.261L0.032,-0.271C0.032,-0.352 0.054,-0.417 0.097,-0.465C0.14,-0.514 0.2,-0.538 0.275,-0.538C0.341,-0.538 0.394,-0.519 0.434,-0.482C0.474,-0.444 0.494,-0.394 0.495,-0.332L0.363,-0.332C0.362,-0.359 0.354,-0.381 0.337,-0.398C0.321,-0.415 0.3,-0.424 0.273,-0.424C0.24,-0.424 0.215,-0.412 0.198,-0.388C0.182,-0.364 0.173,-0.325 0.173,-0.271L0.173,-0.257C0.173,-0.202 0.182,-0.163 0.198,-0.14C0.215,-0.116 0.24,-0.104 0.274,-0.104Z" style="fill-rule:nonzero;"/>
            </g>
            <g transform="matrix(32,0,0,32,495.997,386.819)">
                <path d="M0.371,-0.054C0.336,-0.011 0.288,0.01 0.226,0.01C0.169,0.01 0.126,-0.007 0.096,-0.039C0.067,-0.072 0.051,-0.119 0.051,-0.182L0.051,-0.528L0.192,-0.528L0.192,-0.187C0.192,-0.132 0.217,-0.104 0.267,-0.104C0.315,-0.104 0.348,-0.121 0.366,-0.154L0.366,-0.528L0.507,-0.528L0.507,-0L0.375,-0L0.371,-0.054Z" style="fill-rule:nonzero;"/>
            </g>
            <g transform="matrix(32,0,0,32,513.903,386.819)">
                <path d="M0.351,-0.396C0.332,-0.399 0.315,-0.4 0.3,-0.4C0.247,-0.4 0.212,-0.382 0.195,-0.346L0.195,-0L0.054,-0L0.054,-0.528L0.188,-0.528L0.191,-0.465C0.22,-0.514 0.259,-0.538 0.309,-0.538C0.325,-0.538 0.339,-0.536 0.353,-0.532L0.351,-0.396Z" style="fill-rule:nonzero;"/>
            </g>
            <g transform="matrix(32,0,0,32,525.575,386.819)">
                <path d="M0.203,-0L0.062,-0L0.062,-0.528L0.203,-0.528L0.203,-0ZM0.053,-0.665C0.053,-0.686 0.06,-0.704 0.074,-0.717C0.089,-0.731 0.108,-0.738 0.132,-0.738C0.156,-0.738 0.176,-0.731 0.19,-0.717C0.204,-0.704 0.211,-0.686 0.211,-0.665C0.211,-0.644 0.204,-0.626 0.19,-0.612C0.175,-0.599 0.156,-0.592 0.132,-0.592C0.109,-0.592 0.089,-0.599 0.075,-0.612C0.06,-0.626 0.053,-0.644 0.053,-0.665Z" style="fill-rule:nonzero;"/>
            </g>
            <g transform="matrix(32,0,0,32,534.059,386.819)">
                <path d="M0.032,-0.269C0.032,-0.321 0.042,-0.368 0.063,-0.409C0.083,-0.45 0.112,-0.482 0.15,-0.504C0.188,-0.527 0.232,-0.538 0.282,-0.538C0.353,-0.538 0.411,-0.516 0.456,-0.473C0.501,-0.429 0.527,-0.37 0.532,-0.295L0.533,-0.259C0.533,-0.178 0.51,-0.113 0.465,-0.064C0.42,-0.015 0.359,0.01 0.283,0.01C0.207,0.01 0.146,-0.015 0.1,-0.063C0.055,-0.112 0.032,-0.179 0.032,-0.263L0.032,-0.269ZM0.173,-0.259C0.173,-0.209 0.183,-0.17 0.202,-0.144C0.221,-0.117 0.248,-0.104 0.283,-0.104C0.317,-0.104 0.344,-0.117 0.363,-0.143C0.382,-0.17 0.392,-0.211 0.392,-0.269C0.392,-0.318 0.382,-0.356 0.363,-0.383C0.344,-0.41 0.317,-0.424 0.282,-0.424C0.247,-0.424 0.221,-0.41 0.202,-0.384C0.183,-0.357 0.173,-0.315 0.173,-0.259Z" style="fill-rule:nonzero;"/>
            </g>
            <g transform="matrix(32,0,0,32,552.153,386.819)">
                <path d="M0.34,-0.146C0.34,-0.163 0.332,-0.177 0.315,-0.187C0.298,-0.197 0.27,-0.206 0.232,-0.213C0.107,-0.24 0.044,-0.293 0.044,-0.374C0.044,-0.42 0.063,-0.46 0.102,-0.491C0.141,-0.522 0.192,-0.538 0.255,-0.538C0.322,-0.538 0.376,-0.522 0.416,-0.491C0.456,-0.459 0.476,-0.418 0.476,-0.368L0.335,-0.368C0.335,-0.388 0.328,-0.405 0.315,-0.418C0.302,-0.431 0.282,-0.438 0.254,-0.438C0.231,-0.438 0.212,-0.432 0.199,-0.421C0.186,-0.411 0.18,-0.397 0.18,-0.38C0.18,-0.365 0.187,-0.352 0.202,-0.343C0.217,-0.333 0.242,-0.325 0.277,-0.318C0.312,-0.311 0.342,-0.303 0.366,-0.294C0.44,-0.267 0.478,-0.219 0.478,-0.152C0.478,-0.104 0.457,-0.065 0.416,-0.035C0.374,-0.005 0.321,0.01 0.255,0.01C0.211,0.01 0.172,0.002 0.137,-0.014C0.103,-0.03 0.076,-0.051 0.057,-0.079C0.037,-0.106 0.027,-0.136 0.027,-0.168L0.161,-0.168C0.162,-0.143 0.172,-0.124 0.189,-0.11C0.206,-0.097 0.229,-0.09 0.258,-0.09C0.285,-0.09 0.306,-0.095 0.32,-0.106C0.333,-0.116 0.34,-0.129 0.34,-0.146Z" style="fill-rule:nonzero;"/>
            </g>
            <g transform="matrix(32,0,0,32,568.606,386.819)">
                <path d="M0.203,-0L0.062,-0L0.062,-0.528L0.203,-0.528L0.203,-0ZM0.053,-0.665C0.053,-0.686 0.06,-0.704 0.074,-0.717C0.089,-0.731 0.108,-0.738 0.132,-0.738C0.156,-0.738 0.176,-0.731 0.19,-0.717C0.204,-0.704 0.211,-0.686 0.211,-0.665C0.211,-0.644 0.204,-0.626 0.19,-0.612C0.175,-0.599 0.156,-0.592 0.132,-0.592C0.109,-0.592 0.089,-0.599 0.075,-0.612C0.06,-0.626 0.053,-0.644 0.053,-0.665Z" style="fill-rule:nonzero;"/>
            </g>
            <g transform="matrix(32,0,0,32,577.091,386.819)">
                <path d="M0.223,-0.658L0.223,-0.528L0.313,-0.528L0.313,-0.425L0.223,-0.425L0.223,-0.161C0.223,-0.142 0.227,-0.128 0.234,-0.119C0.242,-0.111 0.256,-0.106 0.277,-0.106C0.293,-0.106 0.307,-0.108 0.319,-0.11L0.319,-0.003C0.291,0.006 0.263,0.01 0.233,0.01C0.134,0.01 0.084,-0.04 0.082,-0.14L0.082,-0.425L0.005,-0.425L0.005,-0.528L0.082,-0.528L0.082,-0.658L0.223,-0.658Z" style="fill-rule:nonzero;"/>
            </g>
            <g transform="matrix(32,0,0,32,587.903,386.819)">
                <path d="M0.251,-0.2L0.349,-0.528L0.5,-0.528L0.288,0.082L0.276,0.11C0.245,0.179 0.193,0.213 0.12,0.213C0.1,0.213 0.079,0.21 0.058,0.204L0.058,0.097L0.079,0.098C0.106,0.098 0.126,0.094 0.139,0.085C0.152,0.077 0.162,0.064 0.17,0.045L0.187,0.001L0.001,-0.528L0.153,-0.528L0.251,-0.2Z" style="fill-rule:nonzero;"/>
            </g>
            <g transform="matrix(32,0,0,32,611.934,386.819)">
                <path d="M0.36,-0C0.354,-0.013 0.349,-0.028 0.346,-0.047C0.312,-0.009 0.268,0.01 0.213,0.01C0.161,0.01 0.118,-0.005 0.084,-0.035C0.05,-0.065 0.033,-0.103 0.033,-0.148C0.033,-0.204 0.054,-0.247 0.095,-0.277C0.137,-0.307 0.197,-0.322 0.275,-0.323L0.34,-0.323L0.34,-0.353C0.34,-0.377 0.334,-0.397 0.322,-0.412C0.309,-0.426 0.289,-0.434 0.262,-0.434C0.238,-0.434 0.22,-0.428 0.206,-0.417C0.193,-0.405 0.186,-0.389 0.186,-0.37L0.045,-0.37C0.045,-0.4 0.054,-0.429 0.073,-0.455C0.092,-0.481 0.119,-0.501 0.153,-0.516C0.188,-0.531 0.227,-0.538 0.27,-0.538C0.335,-0.538 0.386,-0.522 0.425,-0.489C0.463,-0.456 0.482,-0.41 0.482,-0.351L0.482,-0.122C0.482,-0.072 0.489,-0.034 0.503,-0.008L0.503,-0L0.36,-0ZM0.244,-0.098C0.264,-0.098 0.284,-0.103 0.301,-0.112C0.319,-0.121 0.332,-0.134 0.34,-0.149L0.34,-0.24L0.288,-0.24C0.217,-0.24 0.179,-0.216 0.175,-0.167L0.174,-0.159C0.174,-0.141 0.181,-0.127 0.193,-0.115C0.205,-0.104 0.222,-0.098 0.244,-0.098Z" style="fill-rule:nonzero;"/>
            </g>
            <g transform="matrix(32,0,0,32,629.091,386.819)">
                <path d="M0.184,-0.528L0.188,-0.467C0.226,-0.514 0.277,-0.538 0.34,-0.538C0.396,-0.538 0.438,-0.522 0.465,-0.489C0.493,-0.456 0.507,-0.407 0.507,-0.341L0.507,-0L0.366,-0L0.366,-0.338C0.366,-0.368 0.36,-0.39 0.347,-0.403C0.334,-0.417 0.312,-0.423 0.282,-0.423C0.242,-0.423 0.212,-0.406 0.192,-0.373L0.192,-0L0.051,-0L0.051,-0.528L0.184,-0.528Z" style="fill-rule:nonzero;"/>
            </g>
            <g transform="matrix(32,0,0,32,647.012,386.819)">
                <path d="M0.032,-0.268C0.032,-0.35 0.051,-0.416 0.088,-0.465C0.125,-0.514 0.175,-0.538 0.239,-0.538C0.291,-0.538 0.333,-0.519 0.367,-0.48L0.367,-0.75L0.508,-0.75L0.508,-0L0.381,-0L0.374,-0.056C0.339,-0.012 0.294,0.01 0.238,0.01C0.176,0.01 0.126,-0.015 0.089,-0.064C0.051,-0.113 0.032,-0.181 0.032,-0.268ZM0.173,-0.258C0.173,-0.208 0.182,-0.17 0.199,-0.144C0.216,-0.118 0.242,-0.104 0.274,-0.104C0.318,-0.104 0.349,-0.123 0.367,-0.16L0.367,-0.368C0.349,-0.405 0.319,-0.423 0.275,-0.423C0.207,-0.423 0.173,-0.368 0.173,-0.258Z" style="fill-rule:nonzero;"/>
            </g>
            <g transform="matrix(32,0,0,32,379.481,418.819)">
                <path d="M0.34,-0.146C0.34,-0.163 0.332,-0.177 0.315,-0.187C0.298,-0.197 0.27,-0.206 0.232,-0.213C0.107,-0.24 0.044,-0.293 0.044,-0.374C0.044,-0.42 0.063,-0.46 0.102,-0.491C0.141,-0.522 0.192,-0.538 0.255,-0.538C0.322,-0.538 0.376,-0.522 0.416,-0.491C0.456,-0.459 0.476,-0.418 0.476,-0.368L0.335,-0.368C0.335,-0.388 0.328,-0.405 0.315,-0.418C0.302,-0.431 0.282,-0.438 0.254,-0.438C0.231,-0.438 0.212,-0.432 0.199,-0.421C0.186,-0.411 0.18,-0.397 0.18,-0.38C0.18,-0.365 0.187,-0.352 0.202,-0.343C0.217,-0.333 0.242,-0.325 0.277,-0.318C0.312,-0.311 0.342,-0.303 0.366,-0.294C0.44,-0.267 0.478,-0.219 0.478,-0.152C0.478,-0.104 0.457,-0.065 0.416,-0.035C0.374,-0.005 0.321,0.01 0.255,0.01C0.211,0.01 0.172,0.002 0.137,-0.014C0.103,-0.03 0.076,-0.051 0.057,-0.079C0.037,-0.106 0.027,-0.136 0.027,-0.168L0.161,-0.168C0.162,-0.143 0.172,-0.124 0.189,-0.11C0.206,-0.097 0.229,-0.09 0.258,-0.09C0.285,-0.09 0.306,-0.095 0.32,-0.106C0.333,-0.116 0.34,-0.129 0.34,-0.146Z" style="fill-rule:nonzero;"/>
            </g>
            <g transform="matrix(32,0,0,32,395.934,418.819)">
                <path d="M0.274,-0.104C0.3,-0.104 0.321,-0.111 0.337,-0.125C0.354,-0.14 0.362,-0.159 0.363,-0.183L0.495,-0.183C0.495,-0.147 0.485,-0.114 0.466,-0.084C0.447,-0.054 0.42,-0.031 0.387,-0.015C0.354,0.002 0.317,0.01 0.276,0.01C0.201,0.01 0.141,-0.014 0.098,-0.062C0.054,-0.11 0.032,-0.177 0.032,-0.261L0.032,-0.271C0.032,-0.352 0.054,-0.417 0.097,-0.465C0.14,-0.514 0.2,-0.538 0.275,-0.538C0.341,-0.538 0.394,-0.519 0.434,-0.482C0.474,-0.444 0.494,-0.394 0.495,-0.332L0.363,-0.332C0.362,-0.359 0.354,-0.381 0.337,-0.398C0.321,-0.415 0.3,-0.424 0.273,-0.424C0.24,-0.424 0.215,-0.412 0.198,-0.388C0.182,-0.364 0.173,-0.325 0.173,-0.271L0.173,-0.257C0.173,-0.202 0.182,-0.163 0.198,-0.14C0.215,-0.116 0.24,-0.104 0.274,-0.104Z" style="fill-rule:nonzero;"/>
            </g>
            <g transform="matrix(32,0,0,32,412.622,418.819)">
                <path d="M0.203,-0L0.062,-0L0.062,-0.528L0.203,-0.528L0.203,-0ZM0.053,-0.665C0.053,-0.686 0.06,-0.704 0.074,-0.717C0.089,-0.731 0.108,-0.738 0.132,-0.738C0.156,-0.738 0.176,-0.731 0.19,-0.717C0.204,-0.704 0.211,-0.686 0.211,-0.665C0.211,-0.644 0.204,-0.626 0.19,-0.612C0.175,-0.599 0.156,-0.592 0.132,-0.592C0.109,-0.592 0.089,-0.599 0.075,-0.612C0.06,-0.626 0.053,-0.644 0.053,-0.665Z" style="fill-rule:nonzero;"/>
            </g>
            <g transform="matrix(32,0,0,32,421.106,418.819)">
                <path d="M0.297,0.01C0.22,0.01 0.157,-0.014 0.108,-0.062C0.059,-0.109 0.035,-0.172 0.035,-0.251L0.035,-0.265C0.035,-0.318 0.045,-0.366 0.066,-0.407C0.086,-0.449 0.115,-0.482 0.153,-0.504C0.191,-0.527 0.234,-0.538 0.282,-0.538C0.354,-0.538 0.411,-0.515 0.452,-0.47C0.494,-0.424 0.515,-0.36 0.515,-0.276L0.515,-0.218L0.178,-0.218C0.183,-0.184 0.197,-0.156 0.219,-0.135C0.242,-0.114 0.271,-0.104 0.307,-0.104C0.361,-0.104 0.403,-0.124 0.434,-0.163L0.503,-0.085C0.482,-0.056 0.454,-0.032 0.417,-0.015C0.381,0.001 0.341,0.01 0.297,0.01ZM0.281,-0.424C0.253,-0.424 0.231,-0.414 0.213,-0.396C0.196,-0.377 0.185,-0.35 0.18,-0.314L0.376,-0.314L0.376,-0.326C0.375,-0.357 0.367,-0.381 0.351,-0.398C0.334,-0.415 0.311,-0.424 0.281,-0.424Z" style="fill-rule:nonzero;"/>
            </g>
            <g transform="matrix(32,0,0,32,438.403,418.819)">
                <path d="M0.184,-0.528L0.188,-0.467C0.226,-0.514 0.277,-0.538 0.34,-0.538C0.396,-0.538 0.438,-0.522 0.465,-0.489C0.493,-0.456 0.507,-0.407 0.507,-0.341L0.507,-0L0.366,-0L0.366,-0.338C0.366,-0.368 0.36,-0.39 0.347,-0.403C0.334,-0.417 0.312,-0.423 0.282,-0.423C0.242,-0.423 0.212,-0.406 0.192,-0.373L0.192,-0L0.051,-0L0.051,-0.528L0.184,-0.528Z" style="fill-rule:nonzero;"/>
            </g>
            <g transform="matrix(32,0,0,32,456.325,418.819)">
                <path d="M0.274,-0.104C0.3,-0.104 0.321,-0.111 0.337,-0.125C0.354,-0.14 0.362,-0.159 0.363,-0.183L0.495,-0.183C0.495,-0.147 0.485,-0.114 0.466,-0.084C0.447,-0.054 0.42,-0.031 0.387,-0.015C0.354,0.002 0.317,0.01 0.276,0.01C0.201,0.01 0.141,-0.014 0.098,-0.062C0.054,-0.11 0.032,-0.177 0.032,-0.261L0.032,-0.271C0.032,-0.352 0.054,-0.417 0.097,-0.465C0.14,-0.514 0.2,-0.538 0.275,-0.538C0.341,-0.538 0.394,-0.519 0.434,-0.482C0.474,-0.444 0.494,-0.394 0.495,-0.332L0.363,-0.332C0.362,-0.359 0.354,-0.381 0.337,-0.398C0.321,-0.415 0.3,-0.424 0.273,-0.424C0.24,-0.424 0.215,-0.412 0.198,-0.388C0.182,-0.364 0.173,-0.325 0.173,-0.271L0.173,-0.257C0.173,-0.202 0.182,-0.163 0.198,-0.14C0.215,-0.116 0.24,-0.104 0.274,-0.104Z" style="fill-rule:nonzero;"/>
            </g>
            <g transform="matrix(32,0,0,32,473.012,418.819)">
                <path d="M0.297,0.01C0.22,0.01 0.157,-0.014 0.108,-0.062C0.059,-0.109 0.035,-0.172 0.035,-0.251L0.035,-0.265C0.035,-0.318 0.045,-0.366 0.066,-0.407C0.086,-0.449 0.115,-0.482 0.153,-0.504C0.191,-0.527 0.234,-0.538 0.282,-0.538C0.354,-0.538 0.411,-0.515 0.452,-0.47C0.494,-0.424 0.515,-0.36 0.515,-0.276L0.515,-0.218L0.178,-0.218C0.183,-0.184 0.197,-0.156 0.219,-0.135C0.242,-0.114 0.271,-0.104 0.307,-0.104C0.361,-0.104 0.403,-0.124 0.434,-0.163L0.503,-0.085C0.482,-0.056 0.454,-0.032 0.417,-0.015C0.381,0.001 0.341,0.01 0.297,0.01ZM0.281,-0.424C0.253,-0.424 0.231,-0.414 0.213,-0.396C0.196,-0.377 0.185,-0.35 0.18,-0.314L0.376,-0.314L0.376,-0.326C0.375,-0.357 0.367,-0.381 0.351,-0.398C0.334,-0.415 0.311,-0.424 0.281,-0.424Z" style="fill-rule:nonzero;"/>
            </g>
            <g transform="matrix(32,0,0,32,498.278,418.819)">
                <path d="M0.187,-0.528L0.191,-0.469C0.228,-0.515 0.279,-0.538 0.343,-0.538C0.411,-0.538 0.458,-0.511 0.483,-0.458C0.52,-0.511 0.573,-0.538 0.642,-0.538C0.699,-0.538 0.742,-0.521 0.77,-0.488C0.798,-0.455 0.812,-0.404 0.812,-0.337L0.812,-0L0.67,-0L0.67,-0.337C0.67,-0.367 0.664,-0.389 0.652,-0.403C0.641,-0.416 0.62,-0.423 0.59,-0.423C0.548,-0.423 0.519,-0.403 0.502,-0.363L0.503,-0L0.362,-0L0.362,-0.336C0.362,-0.367 0.356,-0.389 0.344,-0.403C0.332,-0.417 0.311,-0.423 0.282,-0.423C0.242,-0.423 0.213,-0.407 0.195,-0.374L0.195,-0L0.054,-0L0.054,-0.528L0.187,-0.528Z" style="fill-rule:nonzero;"/>
            </g>
            <g transform="matrix(32,0,0,32,525.981,418.819)">
                <path d="M0.297,0.01C0.22,0.01 0.157,-0.014 0.108,-0.062C0.059,-0.109 0.035,-0.172 0.035,-0.251L0.035,-0.265C0.035,-0.318 0.045,-0.366 0.066,-0.407C0.086,-0.449 0.115,-0.482 0.153,-0.504C0.191,-0.527 0.234,-0.538 0.282,-0.538C0.354,-0.538 0.411,-0.515 0.452,-0.47C0.494,-0.424 0.515,-0.36 0.515,-0.276L0.515,-0.218L0.178,-0.218C0.183,-0.184 0.197,-0.156 0.219,-0.135C0.242,-0.114 0.271,-0.104 0.307,-0.104C0.361,-0.104 0.403,-0.124 0.434,-0.163L0.503,-0.085C0.482,-0.056 0.454,-0.032 0.417,-0.015C0.381,0.001 0.341,0.01 0.297,0.01ZM0.281,-0.424C0.253,-0.424 0.231,-0.414 0.213,-0.396C0.196,-0.377 0.185,-0.35 0.18,-0.314L0.376,-0.314L0.376,-0.326C0.375,-0.357 0.367,-0.381 0.351,-0.398C0.334,-0.415 0.311,-0.424 0.281,-0.424Z" style="fill-rule:nonzero;"/>
            </g>
            <g transform="matrix(32,0,0,32,543.278,418.819)">
                <path d="M0.297,0.01C0.22,0.01 0.157,-0.014 0.108,-0.062C0.059,-0.109 0.035,-0.172 0.035,-0.251L0.035,-0.265C0.035,-0.318 0.045,-0.366 0.066,-0.407C0.086,-0.449 0.115,-0.482 0.153,-0.504C0.191,-0.527 0.234,-0.538 0.282,-0.538C0.354,-0.538 0.411,-0.515 0.452,-0.47C0.494,-0.424 0.515,-0.36 0.515,-0.276L0.515,-0.218L0.178,-0.218C0.183,-0.184 0.197,-0.156 0.219,-0.135C0.242,-0.114 0.271,-0.104 0.307,-0.104C0.361,-0.104 0.403,-0.124 0.434,-0.163L0.503,-0.085C0.482,-0.056 0.454,-0.032 0.417,-0.015C0.381,0.001 0.341,0.01 0.297,0.01ZM0.281,-0.424C0.253,-0.424 0.231,-0.414 0.213,-0.396C0.196,-0.377 0.185,-0.35 0.18,-0.314L0.376,-0.314L0.376,-0.326C0.375,-0.357 0.367,-0.381 0.351,-0.398C0.334,-0.415 0.311,-0.424 0.281,-0.424Z" style="fill-rule:nonzero;"/>
            </g>
            <g transform="matrix(32,0,0,32,560.575,418.819)">
                <path d="M0.223,-0.658L0.223,-0.528L0.313,-0.528L0.313,-0.425L0.223,-0.425L0.223,-0.161C0.223,-0.142 0.227,-0.128 0.234,-0.119C0.242,-0.111 0.256,-0.106 0.277,-0.106C0.293,-0.106 0.307,-0.108 0.319,-0.11L0.319,-0.003C0.291,0.006 0.263,0.01 0.233,0.01C0.134,0.01 0.084,-0.04 0.082,-0.14L0.082,-0.425L0.005,-0.425L0.005,-0.528L0.082,-0.528L0.082,-0.658L0.223,-0.658Z" style="fill-rule:nonzero;"/>
            </g>
        </g>
    </g>
</svg>
